<!-- Menu bar icon shown while friends are connected: same armchair language,
     widened into a 3-seater with cushion dividers punched out via the mask. -->
<svg xmlns="http://www.w3.org/2000/svg" viewBox="0 0 32 24" width="32" height="24">
  <defs>
    <mask id="cushions">
      <rect width="32" height="24" fill="white"/>
      <rect x="11.4" y="3" width="1.3" height="11" fill="black"/>
      <rect x="19.4" y="3" width="1.3" height="11" fill="black"/>
    </mask>
  </defs>
  <g mask="url(#cushions)">
    <path fill="#000000" d="M4 9V7a3 3 0 0 1 3-3h18a3 3 0 0 1 3 3v2a3 3 0 0 0-3 3v1H7v-1a3 3 0 0 0-3-3Z"/>
  </g>
  <path fill="#000000" d="M3 11a2 2 0 0 1 2 2v2h22v-2a2 2 0 0 1 2-2 1 1 0 0 1 1 1v5a2 2 0 0 1-2 2h-1v1a1 1 0 1 1-2 0v-1H7v1a1 1 0 1 1-2 0v-1H4a2 2 0 0 1-2-2v-5a1 1 0 0 1 1-1Z"/>
</svg>
